<svg xmlns="http://www.w3.org/2000/svg" xmlns:xlink="http://www.w3.org/1999/xlink" width="89" height="91" viewBox="0 0 89 91">
    <defs>
        <rect id="b" width="45" height="44" y="14" rx="8"/>
        <filter id="a" width="271.1%" height="275%" x="-85.6%" y="-62.5%" filterUnits="objectBoundingBox">
            <feOffset dy="11" in="SourceAlpha" result="shadowOffsetOuter1"/>
            <feGaussianBlur in="shadowOffsetOuter1" result="shadowBlurOuter1" stdDeviation="11"/>
            <feColorMatrix in="shadowBlurOuter1" values="0 0 0 0 0.2 0 0 0 0 0.450980392 0 0 0 0 0.996078431 0 0 0 1 0"/>
        </filter>
    </defs>
    <g fill="none" fill-rule="evenodd">
        <g transform="translate(22)">
            <use fill="#000" filter="url(#a)" xlink:href="#b"/>
            <use fill="#3373FE" xlink:href="#b"/>
        </g>
        <g fill-rule="nonzero">
            <path fill="#124FD3" d="M78 25c0 11.046-8.954 20-20 20s-20-8.954-20-20S46.954 5 58 5s20 8.954 20 20z"/>
            <path fill="#000" d="M58 0C44.193 0 33 11.193 33 25s11.193 25 25 25 25-11.193 25-25C82.985 11.2 71.8.015 58 0zm0 48.333c-12.887 0-23.333-10.446-23.333-23.333C34.667 12.113 45.113 1.667 58 1.667c12.887 0 23.333 10.446 23.333 23.333C81.32 37.88 70.88 48.319 58 48.333z"/>
        </g>
        <g fill-rule="nonzero">
            <path fill="#FFF" d="M48.5 18h18v13h-18z"/>
            <path fill="#FFF" d="M48.5 19l9 7 9-7z"/>
            <path fill="#000" d="M66.833 18H48.167c-.368 0-.667.261-.667.583v12.834c0 .322.299.583.667.583h18.666c.368 0 .667-.261.667-.583V18.583c0-.322-.299-.583-.667-.583zm-1.8 1.167L57.5 24.815l-7.533-5.648h15.066zm-16.2 11.666V19.851l8.233 6.175a.74.74 0 0 0 .867 0l8.234-6.175v10.982H48.833z"/>
        </g>
    </g>
</svg>
