<svg xmlns="http://www.w3.org/2000/svg" xmlns:xlink="http://www.w3.org/1999/xlink" width="89" height="91" viewBox="0 0 89 91">
    <defs>
        <rect id="b" width="45" height="44" y="14" rx="8"/>
        <filter id="a" width="271.1%" height="275%" x="-85.6%" y="-62.5%" filterUnits="objectBoundingBox">
            <feOffset dy="11" in="SourceAlpha" result="shadowOffsetOuter1"/>
            <feGaussianBlur in="shadowOffsetOuter1" result="shadowBlurOuter1" stdDeviation="11"/>
            <feColorMatrix in="shadowBlurOuter1" values="0 0 0 0 0.2 0 0 0 0 0.450980392 0 0 0 0 0.996078431 0 0 0 1 0"/>
        </filter>
    </defs>
    <g fill="none" fill-rule="evenodd">
        <g transform="translate(22)">
            <use fill="#000" filter="url(#a)" xlink:href="#b"/>
            <use fill="#3373FE" xlink:href="#b"/>
        </g>
        <g fill-rule="nonzero">
            <path fill="#124FD3" d="M78 25c0 11.046-8.954 20-20 20s-20-8.954-20-20S46.954 5 58 5s20 8.954 20 20z"/>
            <path fill="#000" d="M58 0C44.193 0 33 11.193 33 25s11.193 25 25 25 25-11.193 25-25C82.985 11.2 71.8.015 58 0zm0 48.333c-12.887 0-23.333-10.446-23.333-23.333C34.667 12.113 45.113 1.667 58 1.667c12.887 0 23.333 10.446 23.333 23.333C81.32 37.88 70.88 48.319 58 48.333z"/>
        </g>
        <g fill-rule="nonzero">
            <path fill="#FFF" d="M49 18.286a4.285 4.285 0 0 1 6.684-3.552l1.071 6.063-3.392 1.775a12.181 12.181 0 0 0 7.07 7.07l1.772-3.395 6.063 1.072A4.286 4.286 0 0 1 64.714 34C56.035 34 49 26.965 49 18.286z"/>
            <path fill="#000" d="M68.703 27.06l-5.941-1.05a.7.7 0 0 0-.742.366l-1.44 2.76a11.214 11.214 0 0 1-5.715-5.716l2.758-1.44a.7.7 0 0 0 .365-.743l-1.05-5.94a.7.7 0 0 0-.297-.46A4.902 4.902 0 0 0 49 18.9c.01 8.888 7.212 16.09 16.1 16.1a4.901 4.901 0 0 0 4.06-7.643.698.698 0 0 0-.457-.296zM65.1 33.6c-8.114-.01-14.69-6.585-14.7-14.7a3.5 3.5 0 0 1 5.216-3.051l.905 5.128-2.87 1.498a.7.7 0 0 0-.331.869 12.618 12.618 0 0 0 7.336 7.34.7.7 0 0 0 .869-.332l1.499-2.87 5.128.905A3.5 3.5 0 0 1 65.1 33.6z"/>
        </g>
    </g>
</svg>
