<svg xmlns="http://www.w3.org/2000/svg" width="35" height="35" viewBox="0 0 35 35">
    <g fill="none" fill-rule="nonzero">
        <path fill="#0A4DED" d="M35 17.5C35 27.165 27.165 35 17.5 35S0 27.165 0 17.5 7.835 0 17.5 0 35 7.835 35 17.5z"/>
        <path fill="#FFF" d="M24.889 26.444L17.5 21.111l-7.389 5.333V7.778H24.89z"/>
        <path fill="#000" d="M24.924 7.778H10.076a.733.733 0 0 0-.743.722v18.778a.72.72 0 0 0 .41.646.76.76 0 0 0 .778-.069l6.979-5.043 6.979 5.043a.76.76 0 0 0 .777.069.72.72 0 0 0 .41-.646V8.5a.733.733 0 0 0-.742-.722zm-.742 18.064l-6.236-4.509a.759.759 0 0 0-.885 0l-6.243 4.51V9.222h13.364v16.62z"/>
    </g>
</svg>
