<svg xmlns="http://www.w3.org/2000/svg" width="35" height="35" viewBox="0 0 35 35">
    <g fill="none" fill-rule="nonzero">
        <path fill="#0A4DED" d="M35 17.5C35 27.165 27.165 35 17.5 35S0 27.165 0 17.5 7.835 0 17.5 0 35 7.835 35 17.5z"/>
        <path fill="#FFF" d="M20.74 24.889h-7.259L6.222 17.5l7.26-7.389h7.259L28 17.5z"/>
        <path fill="#000" d="M21.447 9.542a.692.692 0 0 0-.999.009.765.765 0 0 0-.008 1.04l6.619 6.9-6.62 6.9a.763.763 0 0 0-.193.721c.065.26.259.463.508.53a.693.693 0 0 0 .693-.202l7.122-7.424a.765.765 0 0 0 0-1.05l-7.122-7.424zM14.57 9.55a.693.693 0 0 0-1.01 0l-7.13 7.43a.765.765 0 0 0 0 1.05l7.13 7.428a.693.693 0 0 0 1-.009.765.765 0 0 0 .01-1.041l-6.627-6.904 6.626-6.903a.765.765 0 0 0 0-1.05z"/>
    </g>
</svg>
