<svg xmlns="http://www.w3.org/2000/svg" width="35" height="35" viewBox="0 0 35 35">
    <g fill="none" fill-rule="nonzero">
        <path fill="#0A4DED" d="M35 17.5C35 27.165 27.165 35 17.5 35S0 27.165 0 17.5 7.835 0 17.5 0 35 7.835 35 17.5z"/>
        <path fill="#FFF" d="M15.556 17.5A4.278 4.278 0 1 1 7 17.5a4.278 4.278 0 0 1 8.556 0z"/>
        <path fill="#FDFDFF" d="M28 17.5a4.278 4.278 0 1 1-8.556 0 4.278 4.278 0 0 1 8.556 0z"/>
        <path fill="#000" d="M29.599 16.78h-.794c-.37-2.544-2.623-4.41-5.236-4.333-2.613.076-4.751 2.069-4.967 4.63a2.874 2.874 0 0 1-2.982 0c-.215-2.561-2.354-4.554-4.966-4.63-2.613-.076-4.868 1.789-5.237 4.333h-.794a.728.728 0 0 0-.734.722c0 .398.329.722.734.722h.794c.352 2.41 2.404 4.231 4.88 4.328 2.476.096 4.67-1.559 5.214-3.935a4.11 4.11 0 0 0 3.2 0c.545 2.376 2.738 4.031 5.214 3.935 2.476-.097 4.529-1.917 4.88-4.328h.794a.728.728 0 0 0 .734-.722.728.728 0 0 0-.734-.722zM10.5 21.112c-2.028 0-3.673-1.617-3.673-3.61 0-1.994 1.645-3.61 3.673-3.61s3.673 1.616 3.673 3.61c-.003 1.993-1.645 3.607-3.673 3.61zm13.222 0c-2.028 0-3.673-1.617-3.673-3.61 0-1.994 1.645-3.61 3.673-3.61 2.029 0 3.673 1.616 3.673 3.61-.002 1.993-1.645 3.607-3.673 3.61z"/>
    </g>
</svg>
