<svg xmlns="http://www.w3.org/2000/svg" width="35" height="35" viewBox="0 0 35 35">
    <g fill="none" fill-rule="nonzero">
        <path fill="#0A4DED" d="M35 17.5C35 27.165 27.165 35 17.5 35S0 27.165 0 17.5 7.835 0 17.5 0 35 7.835 35 17.5z"/>
        <path fill="#FFF" d="M19.727 27.222H9.333V7h16.334v14.444z"/>
        <path fill="#8690FA" d="M19.444 28v-6.222h6.223z"/>
        <path fill="#000" d="M25.696 6.222H9.301a.736.736 0 0 0-.745.726v20.326c0 .401.333.726.745.726h10.433a.76.76 0 0 0 .527-.213l5.962-5.807a.729.729 0 0 0 .15-.213c.01-.022.016-.044.024-.067a.714.714 0 0 0 .039-.189c0-.015.008-.03.008-.044V6.948a.716.716 0 0 0-.219-.514.755.755 0 0 0-.529-.212zm-15.65 1.452h14.905v13.067h-5.217a.736.736 0 0 0-.745.726v5.081h-8.943V7.674zM20.48 25.522v-3.33h3.417l-3.417 3.33z"/>
        <path fill="#000" d="M13.935 14h7.13c.394 0 .713-.348.713-.778 0-.43-.32-.778-.713-.778h-7.13c-.394 0-.713.349-.713.778 0 .43.32.778.713.778zM13.935 17.889h7.13c.394 0 .713-.348.713-.778 0-.43-.32-.778-.713-.778h-7.13c-.394 0-.713.349-.713.778 0 .43.32.778.713.778zM17.111 21H14a.778.778 0 0 0 0 1.556h3.111a.778.778 0 0 0 0-1.556z"/>
    </g>
</svg>
