<svg xmlns="http://www.w3.org/2000/svg" width="35" height="35" viewBox="0 0 35 35">
    <g fill="none" fill-rule="nonzero">
        <path fill="#0A4DED" d="M35 17.5C35 27.165 27.165 35 17.5 35S0 27.165 0 17.5 7.835 0 17.5 0 35 7.835 35 17.5z"/>
        <path fill="#FFF" d="M24.92 21.866a7.852 7.852 0 0 0 2.302-5.473c0-4.758-4.527-8.615-10.11-8.615C11.526 7.778 7 11.635 7 16.393s4.527 8.616 10.111 8.616a11.676 11.676 0 0 0 3.333-.49l6.778 1.925-2.302-4.578z"/>
        <path fill="#000" d="M17.887 7.778C11.884 7.778 7 11.99 7 17.167s4.884 9.389 10.887 9.389a12.444 12.444 0 0 0 3.351-.463l6.611 1.877a.726.726 0 0 0 .819-.311.72.72 0 0 0 .033-.704l-2.091-4.163a8.587 8.587 0 0 0 2.164-5.625c0-5.177-4.884-9.39-10.887-9.39zm7.198 15.217l1.576 3.137-5.226-1.486a.765.765 0 0 0-.407.003 10.976 10.976 0 0 1-3.141.462c-5.203 0-9.435-3.564-9.435-7.944s4.232-7.945 9.435-7.945c5.202 0 9.435 3.564 9.435 7.945a7.22 7.22 0 0 1-2.111 5.005.72.72 0 0 0-.126.823z"/>
        <path fill="#000" d="M14 17.111a1.556 1.556 0 1 1-3.111 0 1.556 1.556 0 0 1 3.111 0zM18.667 17.111a1.556 1.556 0 1 1-3.112 0 1.556 1.556 0 0 1 3.112 0zM24.111 17.111a1.556 1.556 0 1 1-3.111 0 1.556 1.556 0 0 1 3.111 0z"/>
    </g>
</svg>
