<svg xmlns="http://www.w3.org/2000/svg" width="48" height="56" viewBox="0 0 48 56">
    <g fill="none" fill-rule="nonzero">
        <path fill="#CFD2FC" d="M23.5 25C12.653 25.002 3.28 32.68 1 43.428 6.25 50.701 14.608 55 23.5 55S40.75 50.7 46 43.428C43.72 32.68 34.347 25.002 23.5 25z"/>
        <path fill="#FFF" d="M35 13.5C35 19.852 30.075 25 24 25s-11-5.148-11-11.5S17.925 2 24 2s11 5.148 11 11.5z"/>
        <path fill="#365CF6" d="M24 56c9.351-.031 18.135-4.521 23.684-12.105a1.66 1.66 0 0 0 .28-1.317c-1.899-8.73-8.311-15.756-16.787-18.392 4.83-3.196 7.006-9.207 5.35-14.786C34.872 3.822 29.78 0 24 0c-5.779 0-10.872 3.822-12.527 9.4-1.656 5.579.52 11.59 5.35 14.786C8.349 26.822 1.937 33.846.036 42.575c-.097.459.005.938.28 1.317C5.864 51.477 14.648 55.968 24 56zm-9.807-42.814c0-5.457 4.391-9.88 9.807-9.88s9.807 4.423 9.807 9.88c0 5.456-4.391 9.88-9.807 9.88-5.414-.006-9.801-4.426-9.807-9.88zM24 26.359c9.72.041 18.186 6.694 20.594 16.183-4.94 6.412-12.544 10.165-20.6 10.165-8.058 0-15.662-3.753-20.601-10.165C5.802 33.048 14.275 26.395 24 26.359z"/>
    </g>
</svg>
