<svg xmlns="http://www.w3.org/2000/svg" width="48" height="48" viewBox="0 0 48 48">
    <g fill="none" fill-rule="nonzero">
        <g fill="#CFD2FC">
            <path d="M27.667 2H46v18.333H27.667zM2 27.667h18.333V46H2z"/>
        </g>
        <path fill="#365CF6" d="M20.167 0H1.833C.821 0 0 .82 0 1.833v18.334C0 21.179.82 22 1.833 22h18.334C21.179 22 22 21.18 22 20.167V1.833C22 .821 21.18 0 20.167 0zm-1.834 18.333H3.667V3.667h14.666v14.666zM46.167 0H27.833C26.821 0 26 .82 26 1.833v18.334c0 1.012.82 1.833 1.833 1.833h18.334C47.179 22 48 21.18 48 20.167V1.833C48 .821 47.18 0 46.167 0zm-1.834 18.333H29.667V3.667h14.666v14.666zM20.167 26H1.833C.821 26 0 26.82 0 27.833v18.334C0 47.179.82 48 1.833 48h18.334C21.179 48 22 47.18 22 46.167V27.833C22 26.821 21.18 26 20.167 26zm-1.834 18.333H3.667V29.667h14.666v14.666zM46.167 26H27.833C26.821 26 26 26.82 26 27.833v18.334c0 1.012.82 1.833 1.833 1.833h18.334C47.179 48 48 47.18 48 46.167V27.833C48 26.821 47.18 26 46.167 26zm-1.834 18.333H29.667V29.667h14.666v14.666z"/>
    </g>
</svg>
