<svg xmlns="http://www.w3.org/2000/svg" width="35" height="35" viewBox="0 0 35 35">
    <g fill="none" fill-rule="nonzero">
        <path fill="#0A4DED" d="M35 17.5C35 27.165 27.165 35 17.5 35S0 27.165 0 17.5 7.835 0 17.5 0 35 7.835 35 17.5z"/>
        <path fill="#FFF" d="M22.167 8.556c-2.793 0-5.056 2.335-5.056 5.217 0-2.882-2.263-5.217-5.055-5.217C9.263 8.556 7 10.89 7 13.773c0 2.882 7.319 12.671 10.111 12.671 2.792 0 10.111-9.79 10.111-12.67 0-2.883-2.263-5.218-5.055-5.218z"/>
        <path fill="#000" d="M22.193 7.778a5.822 5.822 0 0 0-5.082 2.965c-1.282-2.291-3.968-3.435-6.532-2.78-2.564.653-4.356 2.94-4.357 5.558 0 3.16 7.661 12.923 10.89 12.923C20.338 26.444 28 16.68 28 13.521c-.004-3.17-2.602-5.74-5.807-5.743zm-5.082 17.23c-2.205 0-9.437-8.803-9.437-11.487 0-2.379 1.95-4.307 4.356-4.307 2.405 0 4.355 1.928 4.355 4.307v.586c0 .397.325.718.726.718.401 0 .726-.321.726-.718v-.586c0-2.379 1.95-4.307 4.356-4.307 2.405 0 4.355 1.928 4.355 4.307 0 2.684-7.232 11.488-9.437 11.488z"/>
    </g>
</svg>
