<?xml version="1.0" encoding="UTF-8"?> <svg xmlns="http://www.w3.org/2000/svg" width="600" height="467" fill="none"><g clip-path="url(#clip0)"><path d="M528.634 434.276c-.044-.192-4.273-19.476 4.364-35.492 8.636-16.015 27.071-23.078 27.256-23.148l.842-.316.199.878c.044.193 4.273 19.476-4.363 35.492s-27.071 23.079-27.257 23.149l-.842.316-.199-.879zm31.307-56.813c-3.693 1.589-18.267 8.541-25.561 22.067-7.294 13.528-5.093 29.526-4.392 33.482 3.691-1.585 18.259-8.526 25.561-22.067 7.294-13.527 5.094-29.523 4.392-33.482z" fill="#3F3D56"></path><path d="M550.331 406.073c-15.52 9.337-21.497 27.884-21.497 27.884s19.185 3.407 34.705-5.93 21.497-27.883 21.497-27.883-19.186-3.408-34.705 5.929z" fill="#D0CDE1"></path><path d="M213.138 349.889c-1.845 0-3.71-.029-5.54-.086l.042-1.329c2.627.082 5.309.104 7.949.068l.018 1.33c-.822.011-1.645.017-2.469.017zm10.474-.308l-.078-1.328c2.631-.155 5.296-.374 7.921-.648l.139 1.322c-2.645.278-5.33.498-7.982.654zm-24.011-.207a176.51 176.51 0 01-7.971-.794l.163-1.32c2.615.321 5.276.586 7.909.787l-.101 1.327zm39.937-1.463l-.199-1.315c2.615-.397 5.249-.858 7.829-1.37l.259 1.304c-2.6.517-5.254.981-7.889 1.381zm-55.832-.487a174.533 174.533 0 01-7.865-1.519l.282-1.3c2.578.56 5.203 1.066 7.805 1.507l-.222 1.312zm71.54-2.635l-.32-1.292a173.682 173.682 0 007.671-2.084l.378 1.275a174.938 174.938 0 01-7.729 2.101zm-87.191-.763a173.553 173.553 0 01-7.691-2.237l.401-1.268c2.513.794 5.081 1.541 7.632 2.219l-.342 1.286zm102.545-3.792l-.437-1.257a173.056 173.056 0 007.446-2.783l.494 1.236a175.207 175.207 0 01-7.503 2.804zm-117.836-1.042a174.439 174.439 0 01-7.468-2.944l.516-1.227a171.834 171.834 0 007.412 2.922l-.46 1.249zm132.689-4.902l-.551-1.21a172.898 172.898 0 007.145-3.448l.606 1.184a173.604 173.604 0 01-7.2 3.474zm14.234-7.276l-.659-1.155a174.043 174.043 0 006.805-4.09l.71 1.124a174.684 174.684 0 01-6.856 4.121zm13.518-8.552l-.761-1.09c2.16-1.509 4.315-3.09 6.406-4.697l.811 1.055a175.34 175.34 0 01-6.456 4.732zm-202.766-1.874a175.982 175.982 0 01-6.376-4.857l.83-1.039a175.286 175.286 0 006.327 4.819l-.781 1.077zm215.456-7.879l-.857-1.018a175.134 175.134 0 005.955-5.261l.903.977a177.015 177.015 0 01-6.001 5.302zM97.917 306.59a176.25 176.25 0 01-5.905-5.415l.92-.96a174.46 174.46 0 005.86 5.374l-.876 1.001zm239.734-8.755l-.947-.934a175.901 175.901 0 005.455-5.784l.989.89a176.581 176.581 0 01-5.497 5.828zm-251.29-2.336a177.195 177.195 0 01-5.386-5.927l1.005-.872a174.836 174.836 0 005.345 5.882l-.964.917zm262.013-9.565l-1.028-.845a172.884 172.884 0 004.908-6.259l1.065.797a175.284 175.284 0 01-4.945 6.307zm-272.509-2.526a175.071 175.071 0 01-4.822-6.389l1.08-.777a174.98 174.98 0 004.786 6.341l-1.044.825zM357.973 273.1l-1.101-.747a173.78 173.78 0 004.319-6.684l1.134.696a175.658 175.658 0 01-4.352 6.735zm-291.453-2.681a176.483 176.483 0 01-4.217-6.798l1.145-.675a175.804 175.804 0 004.186 6.746l-1.114.727zm299.844-10.982l-1.164-.644a173.573 173.573 0 003.689-7.055l1.193.59a175.645 175.645 0 01-3.718 7.109zm7.105-14.383l-1.219-.533a172.905 172.905 0 003.026-7.37l1.242.477a174.46 174.46 0 01-3.049 7.426zm-321.886-2.87a174.432 174.432 0 01-2.903-7.444l1.25-.455c.9 2.473 1.869 4.958 2.88 7.387l-1.227.512zm327.639-12.117l-1.263-.418c.83-2.502 1.614-5.059 2.328-7.601l1.281.36c-.72 2.562-1.51 5.139-2.346 7.659zm-333.105-2.915a175.473 175.473 0 01-2.21-7.699l1.287-.338c.67 2.554 1.408 5.124 2.193 7.64l-1.27.397zm337.441-12.503l-1.296-.301c.596-2.564 1.14-5.183 1.619-7.782l1.308.241a174.091 174.091 0 01-1.631 7.842zM42.053 211.66a175.055 175.055 0 01-1.492-7.869l1.312-.219c.432 2.605.93 5.232 1.481 7.81l-1.301.278zm344.403-12.761l-1.319-.18c.358-2.606.66-5.263.899-7.898l1.325.12c-.24 2.656-.545 5.333-.905 7.958zm-347.025-3.037a177.07 177.07 0 01-.766-7.972l1.327-.098c.193 2.637.449 5.299.76 7.912l-1.32.158zm348.472-12.911l-1.329-.06c.118-2.636.178-5.31.178-7.946h1.331c0 2.656-.061 5.35-.18 8.006zm-349.64-3.061a179.343 179.343 0 01-.043-8.011l1.33.024a175.937 175.937 0 00.042 7.951l-1.33.036zm1.603-15.93l-1.328-.083c.166-2.658.395-5.343.68-7.98l1.323.143c-.283 2.618-.51 5.282-.675 7.92zm346.027-8.116c-.265-2.623-.631-3.902-1.017-6.513l1.316-.194c.389 2.631.722 4.639.99 7.282l-1.289-.575zM41.577 148.16l-1.315-.203c.408-2.632.882-5.285 1.408-7.885l1.304.263a173.593 173.593 0 00-1.397 7.825zm341.957-6.662a176.301 176.301 0 00-1.702-7.765l1.292-.314a176.069 176.069 0 011.715 7.823l-1.305.256zm-338.806-8.915l-1.29-.323a174.457 174.457 0 012.127-7.723l1.274.383a174.048 174.048 0 00-2.11 7.663zm335.046-6.527a172.645 172.645 0 00-2.41-7.575l1.258-.432c.864 2.512 1.681 5.08 2.429 7.632l-1.277.375zm-330.466-8.715l-1.255-.441a174.426 174.426 0 012.837-7.51l1.234.499a172.536 172.536 0 00-2.816 7.452zm325.299-6.315a173.02 173.02 0 00-3.089-7.304l1.213-.546a174.881 174.881 0 013.113 7.359l-1.237.491zm-319.328-8.45l-1.209-.555a174.885 174.885 0 013.515-7.213l1.182.61a173.74 173.74 0 00-3.488 7.158zm312.818-6.01a174.8 174.8 0 00-3.75-6.995l1.158-.655a175.99 175.99 0 013.778 7.048l-1.186.602zM62.581 88.43l-1.153-.664a175.684 175.684 0 014.16-6.856l1.121.716a174.476 174.476 0 00-4.128 6.804zm297.7-5.678a176.272 176.272 0 00-4.375-6.626l1.092-.758a175.956 175.956 0 014.409 6.677l-1.126.707zM71.144 75.021l-1.088-.766a176.169 176.169 0 014.768-6.444l1.05.815a175.287 175.287 0 00-4.73 6.395zm280.087-5.316a174.753 174.753 0 00-4.964-6.204l1.02-.855a177.057 177.057 0 015.002 6.252l-1.058.807zm-270.34-7.25l-1.013-.862a176.87 176.87 0 015.332-5.98l.973.907a176.103 176.103 0 00-5.292 5.935zm260.135-4.928a175.82 175.82 0 00-5.509-5.73l.938-.943a177.437 177.437 0 015.551 5.773l-.98.9zm-249.29-6.694l-.93-.951a176.673 176.673 0 015.851-5.469l.886.993a174.814 174.814 0 00-5.806 5.427zm238.017-4.51a174.46 174.46 0 00-6.01-5.207l.849-1.025a177.174 177.174 0 016.055 5.247l-.894.985zM103.589 40.25l-.84-1.032a177.397 177.397 0 016.321-4.912l.793 1.069a175.015 175.015 0 00-6.274 4.875zm12.76-9.457l-.742-1.104a176.075 176.075 0 016.738-4.313l.691 1.136a176.076 176.076 0 00-6.687 4.28zm13.562-8.25l-.639-1.167a176.2 176.2 0 017.1-3.677l.585 1.195a174.042 174.042 0 00-7.046 3.65zm160.557-3.082a174.49 174.49 0 00-7.208-3.386l.538-1.217a174.765 174.765 0 017.263 3.412l-.593 1.191zM144.16 15.572l-.528-1.22a174.203 174.203 0 017.402-3.008l.472 1.244a173.424 173.424 0 00-7.346 2.985zm131.742-2.55a172.76 172.76 0 00-7.494-2.709l.424-1.261c2.528.848 5.069 1.767 7.551 2.73l-.481 1.24zM159 9.938l-.415-1.265c2.529-.828 5.108-1.609 7.667-2.319l.356 1.282c-2.54.704-5.099 1.479-7.608 2.302zm101.816-1.979a172.682 172.682 0 00-7.692-2.002l.305-1.294c2.587.61 5.195 1.288 7.752 2.017l-.365 1.28zm-86.502-2.271l-.296-1.297a174.05 174.05 0 017.847-1.604l.236 1.31a173.482 173.482 0 00-7.787 1.59zm71.034-1.375c-2.591-.487-5.23-.92-7.844-1.286l.185-1.318c2.634.37 5.294.806 7.904 1.296l-.245 1.308zm-55.394-1.448l-.176-1.319c2.633-.351 5.312-.647 7.96-.877l.116 1.325c-2.629.23-5.286.522-7.9.871zm39.656-.763a175.138 175.138 0 00-7.928-.565l.065-1.33c2.66.13 5.347.321 7.988.57l-.125 1.325zm-23.823-.618l-.056-1.33c2.445-.101 4.937-.153 7.407-.154l.602.001-.004 1.33h-.598c-2.452 0-4.925.052-7.351.153zM599.999 433.897H112.416v1.331h487.583v-1.331z" fill="#3F3D56"></path><path d="M397.789 210.217l6.652 103.104s15.965 40.577 15.3 79.157c0 0-5.987 15.3-1.331 17.961 4.656 2.66 7.317 4.656 4.656 6.651-2.66 1.996-4.656 6.652-2.66 7.983 1.995 1.33 2.66 3.326 1.995 3.326h-19.955s3.991-9.978-1.996-12.639c-5.987-2.661-2.661-9.313-2.661-9.313L353.222 276.07l-35.255 119.734s5.986 3.992 1.33 5.987c-4.656 1.996-6.652-1.995-4.656 1.996 1.995 3.991-.665 5.986-.665 6.652 0 .665-19.956-1.996-19.956-1.996s9.978-8.647 5.321-10.643c-4.656-1.996-6.652-3.991-5.321-5.322 1.33-1.33 6.652-13.969 6.652-13.969s2.66-47.893 3.326-49.889c.665-1.995 0-11.308 0-15.964 0-4.657-.666-23.282 1.33-27.938 1.996-4.656 3.991-61.863 14.634-68.515 10.643-6.651 77.827-5.986 77.827-5.986z" fill="#2F2E41"></path><path d="M313.31 407.112s13.304 27.273 3.991 30.599c-9.313 3.326-21.286.665-23.947 4.656-2.66 3.991-31.929 8.647-32.594-1.33-.665-9.978 31.929-28.604 31.929-28.604l4.246-6.836 16.375 1.515zM421.072 427.068s13.303 27.273 3.991 30.599c-9.313 3.326-21.286.665-23.947 4.656-2.661 3.991-31.929 8.648-32.594-1.33-.665-9.978 31.929-28.603 31.929-28.603l4.246-6.837 16.375 1.515z" fill="#2F2E41"></path><path d="M359.541 84.828c12.123 0 21.951-9.828 21.951-21.951 0-12.123-9.828-21.951-21.951-21.951-12.123 0-21.951 9.828-21.951 21.951 0 12.123 9.828 21.951 21.951 21.951z" fill="#A0616A"></path><path d="M374.508 74.518l-2.66 19.29-19.956 15.299-5.322-7.317V76.513l27.938-1.995z" fill="#A0616A"></path><path d="M343.245 99.13s20.621 1.996 31.264-5.321l21.286 125.72s-75.166 5.987-78.492 1.996v-39.246l13.304-63.858 12.638-19.29z" fill="#3F3D56"></path><path d="M372.676 87.798l7.153 6.01s29.268 4.657 27.273 12.639l-7.983 94.457 2.661 31.929s-22.616-5.987-39.911 0-3.555-128.65-3.555-128.65 15.856-14.414 14.362-16.385zM346.571 95.078s-21.286 15.36-23.946 25.338c-2.661 9.977-11.309 115.077-11.309 115.077s3.992-1.995 5.987 1.331c1.996 3.325 32.594-136.485 29.268-141.746z" fill="#D0CDE1"></path><path d="M337.601 61.92s-2.376-3.564-1.462-7.402c.546-2.18.762-4.429.64-6.672 0 0 1.919-6.215 3.838-9.689 1.92-3.473 1.006-4.935 7.038-6.032 6.032-1.097 3.565-8.957 19.468-.457a4.661 4.661 0 004.844 1.828c3.29-.64 4.479 3.93 4.479 3.93s2.193-1.28 3.016.548c.822 1.829 6.688-1.097 6.688 11.242s-6.675 23.36-6.675 23.36.489-20.755-10.387-22.857c-10.876-2.102-22.575-8.226-25.409-.365a59.886 59.886 0 01-6.078 12.567z" fill="#2F2E41"></path><path d="M379.714 66.856c1.185 0 2.145-1.281 2.145-2.86 0-1.58-.96-2.861-2.145-2.861s-2.146 1.28-2.146 2.86c0 1.58.961 2.86 2.146 2.86z" fill="#A0616A"></path><path d="M289.556 269.7c-5.263-3.165-11.61-2.923-14.023-2.682.919 2.244 3.676 7.965 8.939 11.132 5.277 3.174 11.615 2.925 14.024 2.684-.918-2.242-3.676-7.966-8.94-11.134zM314.292 332.511h-32.898a7.403 7.403 0 000 14.804h32.898a7.402 7.402 0 000-14.804z" fill="#D0CDE1"></path><path d="M463.264 254.379H278.817a16.34 16.34 0 00-16.338 16.339v89.866a16.339 16.339 0 0016.338 16.338h184.447a16.338 16.338 0 0016.338-16.338v-89.866a16.34 16.34 0 00-10.086-15.095 16.34 16.34 0 00-6.252-1.244zm-189.01 11.145c.364-.065 9.001-1.535 16.152 2.768 7.152 4.303 9.899 12.623 10.013 12.974l.289.898-.928.164a24.609 24.609 0 01-4.003.294c-3.248 0-7.954-.537-12.15-3.062-7.152-4.302-9.899-12.622-10.012-12.974l-.289-.897.928-.165zm40.038 83.435h-32.897a9.046 9.046 0 110-18.093h32.897a9.046 9.046 0 110 18.093zm149.684-1.645a9.9 9.9 0 01-9.869 9.87h-24.673a9.902 9.902 0 01-6.971-2.899 9.902 9.902 0 01-2.899-6.971v-14.803a9.902 9.902 0 012.899-6.971 9.902 9.902 0 016.971-2.899h24.673a9.9 9.9 0 019.869 9.87v14.803z" fill="#D0CDE1"></path><path d="M437.246 344.436h-10.692a2.878 2.878 0 000 5.757h10.692a2.88 2.88 0 002.035-4.914 2.876 2.876 0 00-2.035-.843zm0 4.112h-10.692a1.238 1.238 0 01-.874-.361 1.218 1.218 0 01-.362-.873 1.24 1.24 0 01.362-.873 1.24 1.24 0 01.874-.361h10.692a1.24 1.24 0 011.237 1.234 1.222 1.222 0 01-.363.873 1.233 1.233 0 01-.874.361zM456.985 344.436h-10.692a2.88 2.88 0 00-2.038.841 2.87 2.87 0 00-.845 2.037 2.883 2.883 0 002.883 2.879h10.692a2.882 2.882 0 002.878-2.879 2.878 2.878 0 00-2.878-2.878zm0 4.112h-10.692a1.238 1.238 0 01-.874-.361 1.218 1.218 0 01-.362-.873 1.24 1.24 0 01.362-.873 1.24 1.24 0 01.874-.361h10.692a1.235 1.235 0 01.87 2.105c-.23.232-.544.362-.87.363zM437.246 337.033h-10.692a2.878 2.878 0 000 5.757h10.692c.378.001.753-.073 1.103-.218a2.864 2.864 0 001.56-1.558 2.874 2.874 0 00-1.56-3.763 2.9 2.9 0 00-1.103-.218zm0 4.112h-10.692a1.234 1.234 0 010-2.467h10.692a1.234 1.234 0 010 2.467zM456.985 337.033h-10.692a2.861 2.861 0 00-2.038.842 2.876 2.876 0 000 4.074 2.874 2.874 0 002.038.841h10.692a2.878 2.878 0 000-5.757zm0 4.112h-10.692a1.234 1.234 0 010-2.467h10.692a1.234 1.234 0 010 2.467zM437.246 329.632h-10.692a2.878 2.878 0 000 5.757h10.692a2.876 2.876 0 002.879-2.879 2.879 2.879 0 00-2.879-2.878zm0 4.112h-10.692a1.234 1.234 0 010-2.467h10.692a1.234 1.234 0 010 2.467zM456.985 329.632h-10.692a2.874 2.874 0 00-2.663 3.981 2.876 2.876 0 002.663 1.776h10.692a2.877 2.877 0 000-5.757zm0 4.112h-10.692a1.234 1.234 0 010-2.467h10.692a1.234 1.234 0 010 2.467z" fill="#D0CDE1"></path><path d="M405.106 234.163l-4.768 15.56s-1.219 29.008-17.183 25.017c-15.965-3.991 4.656-37.916 4.656-37.916l4.657-7.317 12.638 4.656zM314.641 234.163l-4.768 15.56s-1.218 29.008-17.183 25.017c-15.964-3.991 4.656-37.916 4.656-37.916l4.657-7.317 12.638 4.656z" fill="#A0616A"></path><path d="M401.781 101.79s10.643-2.66 13.969 15.3c3.326 17.96 7.318 69.179 7.318 69.179l-15.965 53.881s-15.965-8.648-19.291-7.317l12.563-46.777-10.567-47.68s9.313-36.586 11.973-36.586z" fill="#D0CDE1"></path><path opacity=".15" d="M386.307 139.286l13.969 46.563-13.969 47.229 7.982-47.229-7.982-46.563z" fill="#000"></path><path d="M322.625 138.376l-23.947 94.457s12.631 4.169 17.288 7.495l6.659-101.952z" fill="#D0CDE1"></path><path d="M71.417 375.755c36.738 0 66.519-29.782 66.519-66.519 0-36.738-29.781-66.519-66.519-66.519-36.737 0-66.519 29.781-66.519 66.519 0 36.737 29.782 66.519 66.52 66.519z" fill="#3F3D56"></path><path opacity=".1" d="M71.177 366.519c31.594 0 57.206-25.612 57.206-57.206 0-31.594-25.612-57.207-57.206-57.207-31.594 0-57.206 25.613-57.206 57.207s25.612 57.206 57.206 57.206z" fill="#000"></path><path d="M141.685 444.541a480.321 480.321 0 01-141.685 0v-15.965a533.69 533.69 0 00141.685 0v15.965zM141.685 419.928a480.253 480.253 0 01-141.685 0v-15.964a533.69 533.69 0 00141.685 0v15.964zM141.685 395.317a480.253 480.253 0 01-141.685 0v-15.964a533.774 533.774 0 00141.685 0v15.964z" fill="#3F3D56"></path><path d="M76.502 327.661a18.234 18.234 0 01-16.212-9.851h16.212l2.814-5.629H58.432a18.683 18.683 0 01-.225-2.815c0-.957.084-1.885.225-2.814h18.07l2.814-5.629H60.29a18.27 18.27 0 0116.212-9.851 18.21 18.21 0 0111.905 4.419l4.982-4.982a25.207 25.207 0 00-16.887-6.474c-11.033 0-20.378 7.065-23.868 16.888h-9.907l-2.815 5.629H51.34a23.248 23.248 0 000 5.629h-8.612l-2.815 5.629h12.722c3.49 9.823 12.835 16.888 23.868 16.888a25.15 25.15 0 0016.887-6.474l-5.01-4.982a18.025 18.025 0 01-11.877 4.419z" fill="#6C63FF"></path></g><defs><clipPath id="clip0"><path fill="#fff" d="M0 0h600v466.967H0z"></path></clipPath></defs></svg> 